<svg width="308" height="320" viewBox="0 0 308 320" fill="none" xmlns="http://www.w3.org/2000/svg">
<mask id="path-1-inside-1_16144_41469" fill="white">
<path d="M0 0H308V64H0V0Z"/>
</mask>
<path d="M0 0H308V64H0V0Z" fill="#F1F5F9"/>
<path d="M308 63H0V65H308V63Z" fill="#E2E8F0" mask="url(#path-1-inside-1_16144_41469)"/>
<g clip-path="url(#clip0_16144_41469)">
<path d="M56 32C56 40.8366 48.8366 48 40 48C31.1634 48 24 40.8366 24 32C24 23.1634 31.1634 16 40 16C48.8366 16 56 23.1634 56 32ZM26.88 32C26.88 39.246 32.754 45.12 40 45.12C47.246 45.12 53.12 39.246 53.12 32C53.12 24.754 47.246 18.88 40 18.88C32.754 18.88 26.88 24.754 26.88 32Z" fill="#F8FAFC"/>
<path d="M40 17.44C40 16.6447 40.6461 15.9933 41.4381 16.0647C44.8989 16.377 48.1788 17.8098 50.7682 20.1659C53.714 22.8464 55.5542 26.5292 55.929 30.4943C56.3038 34.4594 55.1863 38.4217 52.795 41.6067C50.4036 44.7917 46.9103 46.9703 42.9981 47.7166C39.0859 48.4629 35.0359 47.7232 31.64 45.6422C28.2441 43.5612 25.7465 40.2885 24.6353 36.4639C23.5241 32.6392 23.8794 28.5376 25.6316 24.961C27.1717 21.8171 29.6939 19.2775 32.7967 17.7132C33.5069 17.3551 34.3473 17.723 34.6401 18.4625C34.9329 19.2019 34.5659 20.0318 33.863 20.4038C31.4242 21.6944 29.4425 23.7282 28.2179 26.228C26.7811 29.1609 26.4898 32.5241 27.4009 35.6604C28.3121 38.7966 30.3602 41.4802 33.1448 43.1866C35.9294 44.8931 39.2504 45.4996 42.4584 44.8876C45.6665 44.2756 48.531 42.4892 50.4919 39.8775C52.4528 37.2658 53.3691 34.0167 53.0618 30.7653C52.7544 27.5139 51.2455 24.494 48.8299 22.296C46.7711 20.4226 44.1798 19.2611 41.4372 18.9589C40.6467 18.8718 40 18.2353 40 17.44Z" fill="#14B8A6"/>
<path d="M35.6762 30.792C35.6762 31.192 35.7722 31.476 35.9642 31.644C36.1562 31.812 36.3962 31.896 36.6842 31.896C36.8842 31.896 37.0842 31.84 37.2842 31.728C37.4922 31.608 37.6722 31.412 37.8242 31.14C37.7442 30.54 37.5922 30.128 37.3682 29.904C37.1522 29.672 36.9082 29.556 36.6362 29.556C36.3802 29.556 36.1562 29.656 35.9642 29.856C35.7722 30.048 35.6762 30.36 35.6762 30.792ZM36.4082 36.144C35.9042 36.144 35.4642 36.052 35.0882 35.868C34.7202 35.684 34.4162 35.472 34.1762 35.232L35.1122 34.176C35.2402 34.32 35.4122 34.448 35.6282 34.56C35.8442 34.664 36.0642 34.716 36.2882 34.716C36.5762 34.716 36.8322 34.644 37.0562 34.5C37.2882 34.348 37.4762 34.1 37.6202 33.756C37.7642 33.404 37.8442 32.932 37.8602 32.34C37.6602 32.588 37.4122 32.784 37.1162 32.928C36.8282 33.072 36.5682 33.144 36.3362 33.144C35.9042 33.144 35.5162 33.06 35.1722 32.892C34.8362 32.724 34.5682 32.468 34.3682 32.124C34.1682 31.772 34.0682 31.328 34.0682 30.792C34.0682 30.264 34.1842 29.808 34.4162 29.424C34.6482 29.04 34.9562 28.748 35.3402 28.548C35.7242 28.34 36.1442 28.236 36.6002 28.236C37.0962 28.236 37.5642 28.368 38.0042 28.632C38.4442 28.888 38.8002 29.292 39.0722 29.844C39.3522 30.396 39.4922 31.12 39.4922 32.016C39.4922 32.96 39.3442 33.74 39.0482 34.356C38.7602 34.964 38.3802 35.416 37.9082 35.712C37.4442 36 36.9442 36.144 36.4082 36.144ZM42.964 36.144C42.34 36.144 41.812 36.04 41.38 35.832C40.948 35.624 40.58 35.372 40.276 35.076L41.068 33.96C41.3 34.168 41.552 34.348 41.824 34.5C42.096 34.644 42.392 34.716 42.712 34.716C43.104 34.716 43.416 34.616 43.648 34.416C43.88 34.216 43.996 33.92 43.996 33.528C43.996 33.144 43.884 32.852 43.66 32.652C43.436 32.452 43.148 32.352 42.796 32.352C42.572 32.352 42.384 32.38 42.232 32.436C42.088 32.492 41.9 32.592 41.668 32.736L40.876 32.232L41.092 28.38H45.412V29.868H42.616L42.484 31.296C42.748 31.176 43.032 31.116 43.336 31.116C43.776 31.116 44.176 31.2 44.536 31.368C44.904 31.536 45.2 31.796 45.424 32.148C45.648 32.492 45.76 32.936 45.76 33.48C45.76 34.04 45.628 34.52 45.364 34.92C45.108 35.32 44.768 35.624 44.344 35.832C43.92 36.04 43.46 36.144 42.964 36.144Z" fill="#111827"/>
</g>
<path d="M69.4861 38.192C68.6115 38.192 67.8275 37.9787 67.1341 37.552C66.4515 37.1147 65.9075 36.4907 65.5021 35.68C65.1075 34.8693 64.9101 33.8933 64.9101 32.752C64.9101 31.6213 65.1128 30.6507 65.5181 29.84C65.9235 29.0293 66.4781 28.4053 67.1821 27.968C67.8861 27.5307 68.6808 27.312 69.5661 27.312C70.2061 27.312 70.7715 27.4453 71.2621 27.712C71.7528 27.968 72.1475 28.2667 72.4461 28.608L71.7261 29.472C71.4488 29.1733 71.1341 28.9333 70.7821 28.752C70.4301 28.5707 70.0301 28.48 69.5821 28.48C68.9208 28.48 68.3395 28.656 67.8381 29.008C67.3475 29.3493 66.9635 29.8347 66.6861 30.464C66.4195 31.0933 66.2861 31.8453 66.2861 32.72C66.2861 33.5947 66.4195 34.3573 66.6861 35.008C66.9528 35.648 67.3261 36.144 67.8061 36.496C68.2968 36.848 68.8728 37.024 69.5341 37.024C70.0355 37.024 70.4835 36.9173 70.8781 36.704C71.2728 36.4907 71.6355 36.2027 71.9661 35.84L72.7021 36.672C72.2861 37.152 71.8168 37.5253 71.2941 37.792C70.7715 38.0587 70.1688 38.192 69.4861 38.192ZM77.5548 38.192C76.9254 38.192 76.3334 38.032 75.7788 37.712C75.2348 37.392 74.7921 36.928 74.4508 36.32C74.1201 35.712 73.9548 34.9813 73.9548 34.128C73.9548 33.2533 74.1201 32.512 74.4508 31.904C74.7921 31.296 75.2348 30.832 75.7788 30.512C76.3334 30.192 76.9254 30.032 77.5548 30.032C78.1948 30.032 78.7868 30.192 79.3308 30.512C79.8748 30.832 80.3121 31.296 80.6428 31.904C80.9841 32.512 81.1548 33.2533 81.1548 34.128C81.1548 34.9813 80.9841 35.712 80.6428 36.32C80.3121 36.928 79.8748 37.392 79.3308 37.712C78.7868 38.032 78.1948 38.192 77.5548 38.192ZM77.5548 37.104C78.2268 37.104 78.7654 36.832 79.1708 36.288C79.5868 35.7333 79.7948 35.0133 79.7948 34.128C79.7948 33.232 79.5868 32.5067 79.1708 31.952C78.7654 31.3973 78.2268 31.12 77.5548 31.12C76.8934 31.12 76.3548 31.3973 75.9388 31.952C75.5228 32.5067 75.3148 33.232 75.3148 34.128C75.3148 35.0133 75.5228 35.7333 75.9388 36.288C76.3548 36.832 76.8934 37.104 77.5548 37.104ZM83.2026 38V30.224H84.2906L84.4026 31.344H84.4506C84.824 30.9707 85.2186 30.6613 85.6346 30.416C86.0506 30.16 86.5253 30.032 87.0586 30.032C87.88 30.032 88.4773 30.2933 88.8506 30.816C89.2346 31.328 89.4266 32.08 89.4266 33.072V38H88.1146V33.248C88.1146 32.5227 87.9973 31.9947 87.7626 31.664C87.528 31.3333 87.1546 31.168 86.6426 31.168C86.248 31.168 85.8906 31.2693 85.5706 31.472C85.2613 31.6747 84.9093 31.9733 84.5146 32.368V38H83.2026ZM94.4006 38.192C93.5686 38.192 92.9873 37.952 92.6566 37.472C92.3366 36.992 92.1766 36.368 92.1766 35.6V31.296H91.0246V30.304L92.2406 30.224L92.4006 28.048H93.5046V30.224H95.6006V31.296H93.5046V35.616C93.5046 36.096 93.59 36.4693 93.7606 36.736C93.942 36.992 94.2566 37.12 94.7046 37.12C94.8433 37.12 94.9926 37.0987 95.1526 37.056C95.3126 37.0027 95.4566 36.9547 95.5846 36.912L95.8406 37.904C95.6273 37.9787 95.3926 38.0427 95.1366 38.096C94.8913 38.16 94.646 38.192 94.4006 38.192ZM100.292 38.192C99.5988 38.192 98.9695 38.032 98.4041 37.712C97.8388 37.3813 97.3908 36.912 97.0601 36.304C96.7295 35.696 96.5641 34.9707 96.5641 34.128C96.5641 33.2747 96.7295 32.544 97.0601 31.936C97.4015 31.328 97.8388 30.8587 98.3721 30.528C98.9055 30.1973 99.4655 30.032 100.052 30.032C101.044 30.032 101.807 30.3627 102.34 31.024C102.884 31.6853 103.156 32.5707 103.156 33.68C103.156 33.8187 103.151 33.9573 103.14 34.096C103.14 34.224 103.129 34.336 103.108 34.432H97.8601C97.9135 35.2533 98.1695 35.9093 98.6281 36.4C99.0975 36.8907 99.7055 37.136 100.452 37.136C100.825 37.136 101.167 37.0827 101.476 36.976C101.796 36.8587 102.1 36.7093 102.388 36.528L102.852 37.392C102.521 37.6053 102.143 37.792 101.716 37.952C101.3 38.112 100.825 38.192 100.292 38.192ZM97.8441 33.488H102.004C102.004 32.6987 101.833 32.1013 101.492 31.696C101.161 31.28 100.692 31.072 100.084 31.072C99.5401 31.072 99.0495 31.2853 98.6121 31.712C98.1855 32.128 97.9295 32.72 97.8441 33.488ZM105.078 38V30.224H106.166L106.278 31.344H106.326C106.699 30.9707 107.094 30.6613 107.51 30.416C107.926 30.16 108.4 30.032 108.934 30.032C109.755 30.032 110.352 30.2933 110.726 30.816C111.11 31.328 111.302 32.08 111.302 33.072V38H109.99V33.248C109.99 32.5227 109.872 31.9947 109.638 31.664C109.403 31.3333 109.03 31.168 108.518 31.168C108.123 31.168 107.766 31.2693 107.446 31.472C107.136 31.6747 106.784 31.9733 106.39 32.368V38H105.078ZM116.276 38.192C115.444 38.192 114.862 37.952 114.532 37.472C114.212 36.992 114.052 36.368 114.052 35.6V31.296H112.9V30.304L114.116 30.224L114.276 28.048H115.38V30.224H117.476V31.296H115.38V35.616C115.38 36.096 115.465 36.4693 115.636 36.736C115.817 36.992 116.132 37.12 116.58 37.12C116.718 37.12 116.868 37.0987 117.028 37.056C117.188 37.0027 117.332 36.9547 117.46 36.912L117.716 37.904C117.502 37.9787 117.268 38.0427 117.012 38.096C116.766 38.16 116.521 38.192 116.276 38.192Z" fill="#111827"/>
<mask id="path-8-inside-2_16144_41469" fill="white">
<path d="M0 64H308V128H0V64Z"/>
</mask>
<path d="M308 127H0V129H308V127Z" fill="#E2E8F0" mask="url(#path-8-inside-2_16144_41469)"/>
<g clip-path="url(#clip1_16144_41469)">
<path d="M56 96C56 104.837 48.8366 112 40 112C31.1634 112 24 104.837 24 96C24 87.1634 31.1634 80 40 80C48.8366 80 56 87.1634 56 96ZM26.88 96C26.88 103.246 32.754 109.12 40 109.12C47.246 109.12 53.12 103.246 53.12 96C53.12 88.754 47.246 82.88 40 82.88C32.754 82.88 26.88 88.754 26.88 96Z" fill="#F8FAFC"/>
<path d="M40 81.44C40 80.6447 40.6461 79.9933 41.4381 80.0647C44.475 80.3388 47.3814 81.4764 49.8065 83.3575C52.2316 85.2386 54.0563 87.7708 55.077 90.6441C55.3432 91.3935 54.8729 92.1813 54.1026 92.3791C53.3323 92.5769 52.5549 92.1088 52.2739 91.3648C51.4221 89.1091 49.9612 87.1223 48.0413 85.6332C46.1215 84.144 43.8338 83.223 41.4372 82.9589C40.6467 82.8718 40 82.2353 40 81.44Z" fill="#EF4444"/>
<path d="M34.7357 100V98.872H36.4397V93.856H35.0357V92.992C35.4117 92.92 35.7397 92.836 36.0197 92.74C36.2997 92.636 36.5597 92.512 36.7997 92.368H37.8317V98.872H39.3317V100H34.7357ZM40.888 100V98.872H42.592V93.856H41.188V92.992C41.564 92.92 41.892 92.836 42.172 92.74C42.452 92.636 42.712 92.512 42.952 92.368H43.984V98.872H45.484V100H40.888Z" fill="#111827"/>
</g>
<path d="M65.7291 102V91.504H71.7771V92.624H67.0571V96.176H71.0571V97.296H67.0571V102H65.7291ZM76.3126 102.192C75.6832 102.192 75.0912 102.032 74.5366 101.712C73.9926 101.392 73.5499 100.928 73.2086 100.32C72.8779 99.712 72.7126 98.9813 72.7126 98.128C72.7126 97.2533 72.8779 96.512 73.2086 95.904C73.5499 95.296 73.9926 94.832 74.5366 94.512C75.0912 94.192 75.6832 94.032 76.3126 94.032C76.9526 94.032 77.5446 94.192 78.0886 94.512C78.6326 94.832 79.0699 95.296 79.4006 95.904C79.7419 96.512 79.9126 97.2533 79.9126 98.128C79.9126 98.9813 79.7419 99.712 79.4006 100.32C79.0699 100.928 78.6326 101.392 78.0886 101.712C77.5446 102.032 76.9526 102.192 76.3126 102.192ZM76.3126 101.104C76.9846 101.104 77.5232 100.832 77.9286 100.288C78.3446 99.7333 78.5526 99.0133 78.5526 98.128C78.5526 97.232 78.3446 96.5067 77.9286 95.952C77.5232 95.3973 76.9846 95.12 76.3126 95.12C75.6512 95.12 75.1126 95.3973 74.6966 95.952C74.2806 96.5067 74.0726 97.232 74.0726 98.128C74.0726 99.0133 74.2806 99.7333 74.6966 100.288C75.1126 100.832 75.6512 101.104 76.3126 101.104ZM81.9604 102V94.224H83.0484L83.1604 95.632H83.2084C83.4751 95.1413 83.8004 94.752 84.1844 94.464C84.5684 94.176 84.9791 94.032 85.4164 94.032C85.7258 94.032 86.0031 94.0853 86.2484 94.192L85.9924 95.344C85.8644 95.3013 85.7471 95.2693 85.6404 95.248C85.5338 95.2267 85.4004 95.216 85.2404 95.216C84.9098 95.216 84.5631 95.3493 84.2004 95.616C83.8484 95.8827 83.5391 96.3467 83.2724 97.008V102H81.9604ZM87.5073 102V94.224H88.5953L88.7073 95.344H88.7553C89.0966 94.9707 89.47 94.6613 89.8753 94.416C90.2806 94.16 90.7126 94.032 91.1713 94.032C91.7686 94.032 92.2326 94.1653 92.5633 94.432C92.9046 94.688 93.1553 95.0507 93.3153 95.52C93.7206 95.0827 94.1313 94.7253 94.5473 94.448C94.9633 94.1707 95.406 94.032 95.8753 94.032C96.6753 94.032 97.2673 94.2933 97.6513 94.816C98.046 95.328 98.2433 96.08 98.2433 97.072V102H96.9313V97.248C96.9313 96.5227 96.814 95.9947 96.5793 95.664C96.3446 95.3333 95.982 95.168 95.4913 95.168C94.9153 95.168 94.2646 95.568 93.5393 96.368V102H92.2273V97.248C92.2273 96.5227 92.11 95.9947 91.8753 95.664C91.6406 95.3333 91.2726 95.168 90.7713 95.168C90.1953 95.168 89.5446 95.568 88.8193 96.368V102H87.5073ZM102.565 102.192C101.914 102.192 101.37 102 100.933 101.616C100.506 101.221 100.293 100.677 100.293 99.984C100.293 99.1307 100.672 98.48 101.429 98.032C102.197 97.5733 103.408 97.2533 105.061 97.072C105.061 96.7413 105.013 96.4267 104.917 96.128C104.832 95.8293 104.672 95.5893 104.437 95.408C104.213 95.216 103.888 95.12 103.461 95.12C103.013 95.12 102.592 95.2053 102.197 95.376C101.802 95.5467 101.45 95.7387 101.141 95.952L100.629 95.04C100.992 94.8053 101.434 94.5813 101.957 94.368C102.49 94.144 103.066 94.032 103.685 94.032C104.634 94.032 105.322 94.3253 105.749 94.912C106.176 95.488 106.389 96.2613 106.389 97.232V102H105.301L105.189 101.072H105.141C104.778 101.371 104.378 101.632 103.941 101.856C103.514 102.08 103.056 102.192 102.565 102.192ZM102.949 101.136C103.322 101.136 103.674 101.045 104.005 100.864C104.336 100.683 104.688 100.427 105.061 100.096V97.936C103.77 98.096 102.864 98.336 102.341 98.656C101.829 98.976 101.573 99.3867 101.573 99.888C101.573 100.325 101.706 100.645 101.973 100.848C102.24 101.04 102.565 101.136 102.949 101.136ZM111.065 102.192C110.233 102.192 109.651 101.952 109.321 101.472C109.001 100.992 108.841 100.368 108.841 99.6V95.296H107.689V94.304L108.905 94.224L109.065 92.048H110.169V94.224H112.265V95.296H110.169V99.616C110.169 100.096 110.254 100.469 110.425 100.736C110.606 100.992 110.921 101.12 111.369 101.12C111.507 101.12 111.657 101.099 111.817 101.056C111.977 101.003 112.121 100.955 112.249 100.912L112.505 101.904C112.291 101.979 112.057 102.043 111.801 102.096C111.555 102.16 111.31 102.192 111.065 102.192Z" fill="#111827"/>
<mask id="path-15-inside-3_16144_41469" fill="white">
<path d="M0 128H308V192H0V128Z"/>
</mask>
<path d="M308 191H0V193H308V191Z" fill="#E2E8F0" mask="url(#path-15-inside-3_16144_41469)"/>
<g clip-path="url(#clip2_16144_41469)">
<path d="M56 160C56 168.837 48.8366 176 40 176C31.1634 176 24 168.837 24 160C24 151.163 31.1634 144 40 144C48.8366 144 56 151.163 56 160ZM26.88 160C26.88 167.246 32.754 173.12 40 173.12C47.246 173.12 53.12 167.246 53.12 160C53.12 152.754 47.246 146.88 40 146.88C32.754 146.88 26.88 152.754 26.88 160Z" fill="#F8FAFC"/>
<path d="M40 145.44C40 144.645 40.646 143.993 41.4381 144.065C43.3811 144.24 45.2798 144.77 47.039 145.632C49.2303 146.705 51.147 148.265 52.6425 150.194C54.138 152.122 55.1728 154.366 55.6676 156.755C56.1624 159.145 56.1041 161.616 55.4973 163.979C54.8905 166.342 53.7512 168.536 52.1665 170.391C50.5818 172.247 48.5937 173.715 46.3543 174.684C44.1149 175.653 41.6836 176.097 39.2462 175.982C37.2894 175.89 35.3704 175.439 33.5833 174.657C32.8547 174.338 32.6025 173.456 32.9856 172.759C33.3687 172.062 34.242 171.816 34.9767 172.12C36.3738 172.699 37.864 173.034 39.3819 173.105C41.3805 173.2 43.3742 172.836 45.2105 172.041C47.0468 171.246 48.677 170.042 49.9765 168.521C51.2759 166.999 52.2102 165.201 52.7078 163.263C53.2054 161.325 53.2532 159.299 52.8474 157.339C52.4417 155.38 51.5932 153.54 50.3668 151.959C49.1405 150.378 47.5688 149.098 45.772 148.218C44.4074 147.549 42.9404 147.125 41.4371 146.959C40.6466 146.872 40 146.235 40 145.44Z" fill="#F59E0B"/>
<path d="M35.4317 160.964H37.4357V159.236C37.4357 159.012 37.4437 158.748 37.4597 158.444C37.4757 158.14 37.4877 157.876 37.4957 157.652H37.4477C37.3517 157.852 37.2517 158.048 37.1477 158.24C37.0437 158.432 36.9357 158.632 36.8237 158.84L35.4317 160.964ZM37.4357 164V162.032H34.0637V161.096L37.0877 156.368H38.7317V160.964H39.6917V162.032H38.7317V164H37.4357ZM43.084 164.144C42.588 164.144 42.144 164.056 41.752 163.88C41.36 163.696 41.052 163.448 40.828 163.136C40.604 162.824 40.492 162.46 40.492 162.044C40.492 161.572 40.632 161.176 40.912 160.856C41.192 160.536 41.512 160.28 41.872 160.088V160.04C41.576 159.832 41.324 159.584 41.116 159.296C40.916 159 40.816 158.652 40.816 158.252C40.816 157.836 40.916 157.48 41.116 157.184C41.316 156.88 41.588 156.644 41.932 156.476C42.284 156.308 42.68 156.224 43.12 156.224C43.808 156.224 44.352 156.416 44.752 156.8C45.16 157.176 45.364 157.672 45.364 158.288C45.364 158.664 45.256 159.004 45.04 159.308C44.824 159.612 44.592 159.856 44.344 160.04V160.088C44.696 160.288 45.004 160.54 45.268 160.844C45.532 161.148 45.664 161.556 45.664 162.068C45.664 162.46 45.556 162.812 45.34 163.124C45.124 163.436 44.824 163.684 44.44 163.868C44.056 164.052 43.604 164.144 43.084 164.144ZM43.588 159.692C43.796 159.484 43.952 159.272 44.056 159.056C44.168 158.84 44.224 158.612 44.224 158.372C44.224 158.036 44.124 157.76 43.924 157.544C43.724 157.32 43.448 157.208 43.096 157.208C42.8 157.208 42.552 157.3 42.352 157.484C42.152 157.668 42.052 157.924 42.052 158.252C42.052 158.508 42.12 158.724 42.256 158.9C42.392 159.068 42.576 159.216 42.808 159.344C43.048 159.464 43.308 159.58 43.588 159.692ZM43.108 163.16C43.476 163.16 43.776 163.06 44.008 162.86C44.248 162.652 44.368 162.372 44.368 162.02C44.368 161.74 44.284 161.512 44.116 161.336C43.956 161.16 43.736 161.008 43.456 160.88C43.184 160.744 42.876 160.608 42.532 160.472C42.292 160.648 42.092 160.856 41.932 161.096C41.78 161.336 41.704 161.604 41.704 161.9C41.704 162.276 41.84 162.58 42.112 162.812C42.384 163.044 42.716 163.16 43.108 163.16Z" fill="#111827"/>
</g>
<path d="M69.4058 166.192C68.5311 166.192 67.7524 165.968 67.0698 165.52C66.3978 165.072 65.8698 164.437 65.4858 163.616C65.1124 162.795 64.9258 161.824 64.9258 160.704C64.9258 159.584 65.1124 158.624 65.4858 157.824C65.8698 157.013 66.3978 156.395 67.0698 155.968C67.7524 155.531 68.5311 155.312 69.4058 155.312C70.2911 155.312 71.0698 155.531 71.7418 155.968C72.4138 156.395 72.9418 157.013 73.3258 157.824C73.7098 158.624 73.9018 159.584 73.9018 160.704C73.9018 161.824 73.7098 162.795 73.3258 163.616C72.9418 164.437 72.4138 165.072 71.7418 165.52C71.0698 165.968 70.2911 166.192 69.4058 166.192ZM69.4058 165.024C70.0351 165.024 70.5791 164.848 71.0378 164.496C71.5071 164.133 71.8698 163.632 72.1258 162.992C72.3818 162.341 72.5098 161.579 72.5098 160.704C72.5098 159.403 72.2271 158.373 71.6618 157.616C71.0964 156.859 70.3444 156.48 69.4058 156.48C68.4671 156.48 67.7151 156.859 67.1498 157.616C66.5844 158.373 66.3018 159.403 66.3018 160.704C66.3018 161.579 66.4298 162.341 66.6858 162.992C66.9418 163.632 67.3044 164.133 67.7738 164.496C68.2431 164.848 68.7871 165.024 69.4058 165.024ZM76.0308 169.28V158.224H77.1188L77.2308 159.12H77.2788C77.6308 158.821 78.0148 158.565 78.4308 158.352C78.8574 158.139 79.3001 158.032 79.7588 158.032C80.7614 158.032 81.5241 158.395 82.0468 159.12C82.5694 159.835 82.8308 160.795 82.8308 162C82.8308 162.875 82.6708 163.627 82.3508 164.256C82.0414 164.885 81.6308 165.365 81.1188 165.696C80.6174 166.027 80.0681 166.192 79.4708 166.192C79.1081 166.192 78.7454 166.112 78.3828 165.952C78.0308 165.792 77.6734 165.573 77.3108 165.296L77.3428 166.656V169.28H76.0308ZM79.2468 165.088C79.8868 165.088 80.4148 164.816 80.8308 164.272C81.2574 163.717 81.4708 162.96 81.4708 162C81.4708 161.147 81.3108 160.459 80.9908 159.936C80.6814 159.403 80.1588 159.136 79.4227 159.136C79.0921 159.136 78.7561 159.227 78.4148 159.408C78.0841 159.589 77.7268 159.851 77.3428 160.192V164.272C77.6948 164.571 78.0361 164.784 78.3668 164.912C78.6974 165.029 78.9908 165.088 79.2468 165.088ZM87.0881 166.192C86.2561 166.192 85.6748 165.952 85.3441 165.472C85.0241 164.992 84.8641 164.368 84.8641 163.6V159.296H83.7121V158.304L84.9281 158.224L85.0881 156.048H86.1921V158.224H88.2881V159.296H86.1921V163.616C86.1921 164.096 86.2775 164.469 86.4481 164.736C86.6295 164.992 86.9441 165.12 87.3921 165.12C87.5308 165.12 87.6801 165.099 87.8401 165.056C88.0001 165.003 88.1441 164.955 88.2721 164.912L88.5281 165.904C88.3148 165.979 88.0801 166.043 87.8241 166.096C87.5788 166.16 87.3335 166.192 87.0881 166.192ZM90.0464 166V158.224H91.3584V166H90.0464ZM90.7184 156.624C90.4624 156.624 90.249 156.549 90.0784 156.4C89.9184 156.24 89.8384 156.027 89.8384 155.76C89.8384 155.504 89.9184 155.296 90.0784 155.136C90.249 154.976 90.4624 154.896 90.7184 154.896C90.9744 154.896 91.1824 154.976 91.3424 155.136C91.513 155.296 91.5984 155.504 91.5984 155.76C91.5984 156.027 91.513 156.24 91.3424 156.4C91.1824 156.549 90.9744 156.624 90.7184 156.624ZM93.9839 166V158.224H95.0719L95.1839 159.344H95.2319C95.5732 158.971 95.9465 158.661 96.3519 158.416C96.7572 158.16 97.1892 158.032 97.6479 158.032C98.2452 158.032 98.7092 158.165 99.0399 158.432C99.3812 158.688 99.6319 159.051 99.7919 159.52C100.197 159.083 100.608 158.725 101.024 158.448C101.44 158.171 101.883 158.032 102.352 158.032C103.152 158.032 103.744 158.293 104.128 158.816C104.523 159.328 104.72 160.08 104.72 161.072V166H103.408V161.248C103.408 160.523 103.291 159.995 103.056 159.664C102.821 159.333 102.459 159.168 101.968 159.168C101.392 159.168 100.741 159.568 100.016 160.368V166H98.7039V161.248C98.7039 160.523 98.5865 159.995 98.3519 159.664C98.1172 159.333 97.7492 159.168 97.2479 159.168C96.6719 159.168 96.0212 159.568 95.2959 160.368V166H93.9839ZM107.25 166V158.224H108.562V166H107.25ZM107.922 156.624C107.666 156.624 107.452 156.549 107.282 156.4C107.122 156.24 107.042 156.027 107.042 155.76C107.042 155.504 107.122 155.296 107.282 155.136C107.452 154.976 107.666 154.896 107.922 154.896C108.178 154.896 108.386 154.976 108.546 155.136C108.716 155.296 108.802 155.504 108.802 155.76C108.802 156.027 108.716 156.24 108.546 156.4C108.386 156.549 108.178 156.624 107.922 156.624ZM110.371 166V165.296L114.467 159.296H110.819V158.224H116.131V158.928L112.035 164.928H116.259V166H110.371ZM119.401 166.192C118.75 166.192 118.206 166 117.769 165.616C117.342 165.221 117.129 164.677 117.129 163.984C117.129 163.131 117.508 162.48 118.265 162.032C119.033 161.573 120.244 161.253 121.897 161.072C121.897 160.741 121.849 160.427 121.753 160.128C121.668 159.829 121.508 159.589 121.273 159.408C121.049 159.216 120.724 159.12 120.297 159.12C119.849 159.12 119.428 159.205 119.033 159.376C118.638 159.547 118.286 159.739 117.977 159.952L117.465 159.04C117.828 158.805 118.27 158.581 118.793 158.368C119.326 158.144 119.902 158.032 120.521 158.032C121.47 158.032 122.158 158.325 122.585 158.912C123.012 159.488 123.225 160.261 123.225 161.232V166H122.137L122.025 165.072H121.977C121.614 165.371 121.214 165.632 120.777 165.856C120.35 166.08 119.892 166.192 119.401 166.192ZM119.785 165.136C120.158 165.136 120.51 165.045 120.841 164.864C121.172 164.683 121.524 164.427 121.897 164.096V161.936C120.606 162.096 119.7 162.336 119.177 162.656C118.665 162.976 118.409 163.387 118.409 163.888C118.409 164.325 118.542 164.645 118.809 164.848C119.076 165.04 119.401 165.136 119.785 165.136ZM127.901 166.192C127.069 166.192 126.487 165.952 126.157 165.472C125.837 164.992 125.677 164.368 125.677 163.6V159.296H124.525V158.304L125.741 158.224L125.901 156.048H127.005V158.224H129.101V159.296H127.005V163.616C127.005 164.096 127.09 164.469 127.261 164.736C127.442 164.992 127.757 165.12 128.205 165.12C128.343 165.12 128.493 165.099 128.653 165.056C128.813 165.003 128.957 164.955 129.085 164.912L129.341 165.904C129.127 165.979 128.893 166.043 128.637 166.096C128.391 166.16 128.146 166.192 127.901 166.192ZM130.859 166V158.224H132.171V166H130.859ZM131.531 156.624C131.275 156.624 131.062 156.549 130.891 156.4C130.731 156.24 130.651 156.027 130.651 155.76C130.651 155.504 130.731 155.296 130.891 155.136C131.062 154.976 131.275 154.896 131.531 154.896C131.787 154.896 131.995 154.976 132.155 155.136C132.326 155.296 132.411 155.504 132.411 155.76C132.411 156.027 132.326 156.24 132.155 156.4C131.995 156.549 131.787 156.624 131.531 156.624ZM137.82 166.192C137.191 166.192 136.599 166.032 136.044 165.712C135.5 165.392 135.058 164.928 134.716 164.32C134.386 163.712 134.22 162.981 134.22 162.128C134.22 161.253 134.386 160.512 134.716 159.904C135.058 159.296 135.5 158.832 136.044 158.512C136.599 158.192 137.191 158.032 137.82 158.032C138.46 158.032 139.052 158.192 139.596 158.512C140.14 158.832 140.578 159.296 140.908 159.904C141.25 160.512 141.42 161.253 141.42 162.128C141.42 162.981 141.25 163.712 140.908 164.32C140.578 164.928 140.14 165.392 139.596 165.712C139.052 166.032 138.46 166.192 137.82 166.192ZM137.82 165.104C138.492 165.104 139.031 164.832 139.436 164.288C139.852 163.733 140.06 163.013 140.06 162.128C140.06 161.232 139.852 160.507 139.436 159.952C139.031 159.397 138.492 159.12 137.82 159.12C137.159 159.12 136.62 159.397 136.204 159.952C135.788 160.507 135.58 161.232 135.58 162.128C135.58 163.013 135.788 163.733 136.204 164.288C136.62 164.832 137.159 165.104 137.82 165.104ZM143.468 166V158.224H144.556L144.668 159.344H144.716C145.09 158.971 145.484 158.661 145.9 158.416C146.316 158.16 146.791 158.032 147.324 158.032C148.146 158.032 148.743 158.293 149.116 158.816C149.5 159.328 149.692 160.08 149.692 161.072V166H148.38V161.248C148.38 160.523 148.263 159.995 148.028 159.664C147.794 159.333 147.42 159.168 146.908 159.168C146.514 159.168 146.156 159.269 145.836 159.472C145.527 159.675 145.175 159.973 144.78 160.368V166H143.468Z" fill="#111827"/>
<mask id="path-22-inside-4_16144_41469" fill="white">
<path d="M0 192H308V256H0V192Z"/>
</mask>
<path d="M308 255H0V257H308V255Z" fill="#E2E8F0" mask="url(#path-22-inside-4_16144_41469)"/>
<g clip-path="url(#clip3_16144_41469)">
<path d="M56 224C56 232.837 48.8366 240 40 240C31.1634 240 24 232.837 24 224C24 215.163 31.1634 208 40 208C48.8366 208 56 215.163 56 224ZM26.88 224C26.88 231.246 32.754 237.12 40 237.12C47.246 237.12 53.12 231.246 53.12 224C53.12 216.754 47.246 210.88 40 210.88C32.754 210.88 26.88 216.754 26.88 224Z" fill="#F8FAFC"/>
<path d="M40 209.44C40 208.645 40.6461 207.993 41.4381 208.065C44.8989 208.377 48.1788 209.81 50.7682 212.166C53.714 214.846 55.5542 218.529 55.929 222.494C56.3038 226.459 55.1863 230.422 52.795 233.607C50.4036 236.792 46.9103 238.97 42.9981 239.717C39.0859 240.463 35.0359 239.723 31.64 237.642C28.2441 235.561 25.7465 232.289 24.6353 228.464C23.5241 224.639 23.8794 220.538 25.6316 216.961C27.1717 213.817 29.6939 211.277 32.7967 209.713C33.5069 209.355 34.3473 209.723 34.6401 210.462C34.9329 211.202 34.5659 212.032 33.863 212.404C31.4242 213.694 29.4425 215.728 28.2179 218.228C26.7811 221.161 26.4898 224.524 27.4009 227.66C28.3121 230.797 30.3602 233.48 33.1448 235.187C35.9294 236.893 39.2504 237.5 42.4584 236.888C45.6665 236.276 48.531 234.489 50.4919 231.878C52.4528 229.266 53.3691 226.017 53.0618 222.765C52.7544 219.514 51.2455 216.494 48.8299 214.296C46.7711 212.423 44.1798 211.261 41.4372 210.959C40.6467 210.872 40 210.235 40 209.44Z" fill="#14B8A6"/>
<path d="M35.6762 222.792C35.6762 223.192 35.7722 223.476 35.9642 223.644C36.1562 223.812 36.3962 223.896 36.6842 223.896C36.8842 223.896 37.0842 223.84 37.2842 223.728C37.4922 223.608 37.6722 223.412 37.8242 223.14C37.7442 222.54 37.5922 222.128 37.3682 221.904C37.1522 221.672 36.9082 221.556 36.6362 221.556C36.3802 221.556 36.1562 221.656 35.9642 221.856C35.7722 222.048 35.6762 222.36 35.6762 222.792ZM36.4082 228.144C35.9042 228.144 35.4642 228.052 35.0882 227.868C34.7202 227.684 34.4162 227.472 34.1762 227.232L35.1122 226.176C35.2402 226.32 35.4122 226.448 35.6282 226.56C35.8442 226.664 36.0642 226.716 36.2882 226.716C36.5762 226.716 36.8322 226.644 37.0562 226.5C37.2882 226.348 37.4762 226.1 37.6202 225.756C37.7642 225.404 37.8442 224.932 37.8602 224.34C37.6602 224.588 37.4122 224.784 37.1162 224.928C36.8282 225.072 36.5682 225.144 36.3362 225.144C35.9042 225.144 35.5162 225.06 35.1722 224.892C34.8362 224.724 34.5682 224.468 34.3682 224.124C34.1682 223.772 34.0682 223.328 34.0682 222.792C34.0682 222.264 34.1842 221.808 34.4162 221.424C34.6482 221.04 34.9562 220.748 35.3402 220.548C35.7242 220.34 36.1442 220.236 36.6002 220.236C37.0962 220.236 37.5642 220.368 38.0042 220.632C38.4442 220.888 38.8002 221.292 39.0722 221.844C39.3522 222.396 39.4922 223.12 39.4922 224.016C39.4922 224.96 39.3442 225.74 39.0482 226.356C38.7602 226.964 38.3802 227.416 37.9082 227.712C37.4442 228 36.9442 228.144 36.4082 228.144ZM42.964 228.144C42.34 228.144 41.812 228.04 41.38 227.832C40.948 227.624 40.58 227.372 40.276 227.076L41.068 225.96C41.3 226.168 41.552 226.348 41.824 226.5C42.096 226.644 42.392 226.716 42.712 226.716C43.104 226.716 43.416 226.616 43.648 226.416C43.88 226.216 43.996 225.92 43.996 225.528C43.996 225.144 43.884 224.852 43.66 224.652C43.436 224.452 43.148 224.352 42.796 224.352C42.572 224.352 42.384 224.38 42.232 224.436C42.088 224.492 41.9 224.592 41.668 224.736L40.876 224.232L41.092 220.38H45.412V221.868H42.616L42.484 223.296C42.748 223.176 43.032 223.116 43.336 223.116C43.776 223.116 44.176 223.2 44.536 223.368C44.904 223.536 45.2 223.796 45.424 224.148C45.648 224.492 45.76 224.936 45.76 225.48C45.76 226.04 45.628 226.52 45.364 226.92C45.108 227.32 44.768 227.624 44.344 227.832C43.92 228.04 43.46 228.144 42.964 228.144Z" fill="#111827"/>
</g>
<path d="M65.5884 230V219.504H68.7084C69.4231 219.504 70.0471 219.589 70.5804 219.76C71.1244 219.931 71.5458 220.203 71.8444 220.576C72.1538 220.949 72.3084 221.445 72.3084 222.064C72.3084 222.587 72.1751 223.061 71.9084 223.488C71.6524 223.904 71.2738 224.192 70.7724 224.352V224.416C71.4018 224.533 71.9138 224.8 72.3084 225.216C72.7138 225.632 72.9164 226.203 72.9164 226.928C72.9164 227.611 72.7458 228.181 72.4044 228.64C72.0738 229.099 71.6098 229.44 71.0124 229.664C70.4151 229.888 69.7218 230 68.9324 230H65.5884ZM66.9164 223.968H68.4684C69.3644 223.968 70.0098 223.813 70.4044 223.504C70.7991 223.195 70.9964 222.773 70.9964 222.24C70.9964 221.632 70.7884 221.2 70.3724 220.944C69.9671 220.688 69.3538 220.56 68.5324 220.56H66.9164V223.968ZM66.9164 228.944H68.7404C69.6471 228.944 70.3511 228.779 70.8524 228.448C71.3538 228.107 71.6044 227.584 71.6044 226.88C71.6044 226.229 71.3538 225.755 70.8524 225.456C70.3618 225.147 69.6578 224.992 68.7404 224.992H66.9164V228.944ZM78.0187 230.192C77.3254 230.192 76.696 230.032 76.1307 229.712C75.5654 229.381 75.1174 228.912 74.7867 228.304C74.456 227.696 74.2907 226.971 74.2907 226.128C74.2907 225.275 74.456 224.544 74.7867 223.936C75.128 223.328 75.5654 222.859 76.0987 222.528C76.632 222.197 77.192 222.032 77.7787 222.032C78.7707 222.032 79.5334 222.363 80.0667 223.024C80.6107 223.685 80.8827 224.571 80.8827 225.68C80.8827 225.819 80.8774 225.957 80.8667 226.096C80.8667 226.224 80.856 226.336 80.8347 226.432H75.5867C75.64 227.253 75.896 227.909 76.3547 228.4C76.824 228.891 77.432 229.136 78.1787 229.136C78.552 229.136 78.8934 229.083 79.2027 228.976C79.5227 228.859 79.8267 228.709 80.1147 228.528L80.5787 229.392C80.248 229.605 79.8694 229.792 79.4427 229.952C79.0267 230.112 78.552 230.192 78.0187 230.192ZM75.5707 225.488H79.7307C79.7307 224.699 79.56 224.101 79.2187 223.696C78.888 223.28 78.4187 223.072 77.8107 223.072C77.2667 223.072 76.776 223.285 76.3387 223.712C75.912 224.128 75.656 224.72 75.5707 225.488ZM84.8362 230.192C84.2815 230.192 83.7535 230.091 83.2522 229.888C82.7509 229.675 82.3135 229.419 81.9402 229.12L82.5962 228.24C82.9375 228.507 83.2895 228.731 83.6522 228.912C84.0149 229.083 84.4255 229.168 84.8842 229.168C85.3962 229.168 85.7802 229.051 86.0362 228.816C86.2922 228.571 86.4202 228.283 86.4202 227.952C86.4202 227.685 86.3295 227.461 86.1482 227.28C85.9775 227.099 85.7535 226.949 85.4762 226.832C85.2095 226.704 84.9322 226.587 84.6442 226.48C84.2815 226.341 83.9242 226.187 83.5722 226.016C83.2202 225.835 82.9322 225.605 82.7082 225.328C82.4842 225.04 82.3722 224.677 82.3722 224.24C82.3722 223.611 82.6069 223.088 83.0762 222.672C83.5562 222.245 84.2175 222.032 85.0602 222.032C85.5402 222.032 85.9882 222.117 86.4042 222.288C86.8202 222.459 87.1775 222.667 87.4762 222.912L86.8362 223.744C86.5695 223.541 86.2922 223.376 86.0042 223.248C85.7162 223.12 85.4015 223.056 85.0602 223.056C84.5695 223.056 84.2069 223.168 83.9722 223.392C83.7482 223.616 83.6362 223.877 83.6362 224.176C83.6362 224.421 83.7162 224.624 83.8762 224.784C84.0362 224.933 84.2442 225.067 84.5002 225.184C84.7562 225.291 85.0282 225.403 85.3162 225.52C85.6895 225.659 86.0575 225.819 86.4202 226C86.7829 226.171 87.0815 226.405 87.3162 226.704C87.5615 226.992 87.6842 227.381 87.6842 227.872C87.6842 228.288 87.5722 228.672 87.3482 229.024C87.1349 229.376 86.8149 229.659 86.3882 229.872C85.9722 230.085 85.4549 230.192 84.8362 230.192ZM91.6428 230.192C90.8108 230.192 90.2295 229.952 89.8988 229.472C89.5788 228.992 89.4188 228.368 89.4188 227.6V223.296H88.2668V222.304L89.4828 222.224L89.6428 220.048H90.7468V222.224H92.8428V223.296H90.7468V227.616C90.7468 228.096 90.8321 228.469 91.0028 228.736C91.1841 228.992 91.4988 229.12 91.9468 229.12C92.0855 229.12 92.2348 229.099 92.3948 229.056C92.5548 229.003 92.6988 228.955 92.8268 228.912L93.0828 229.904C92.8695 229.979 92.6348 230.043 92.3788 230.096C92.1335 230.16 91.8881 230.192 91.6428 230.192ZM97.9322 230V219.504H100.924C101.714 219.504 102.402 219.6 102.988 219.792C103.575 219.984 104.034 220.309 104.364 220.768C104.695 221.216 104.86 221.824 104.86 222.592C104.86 223.691 104.503 224.507 103.788 225.04C103.074 225.573 102.14 225.84 100.988 225.84H99.2602V230H97.9322ZM99.2602 224.752H100.828C101.746 224.752 102.423 224.581 102.86 224.24C103.308 223.888 103.532 223.339 103.532 222.592C103.532 221.835 103.298 221.312 102.828 221.024C102.37 220.725 101.682 220.576 100.764 220.576H99.2602V224.752ZM106.867 230V222.224H107.955L108.067 223.632H108.115C108.381 223.141 108.707 222.752 109.091 222.464C109.475 222.176 109.885 222.032 110.323 222.032C110.632 222.032 110.909 222.085 111.155 222.192L110.899 223.344C110.771 223.301 110.653 223.269 110.547 223.248C110.44 223.227 110.307 223.216 110.147 223.216C109.816 223.216 109.469 223.349 109.107 223.616C108.755 223.883 108.445 224.347 108.179 225.008V230H106.867ZM113.815 230.192C113.164 230.192 112.62 230 112.183 229.616C111.756 229.221 111.543 228.677 111.543 227.984C111.543 227.131 111.922 226.48 112.679 226.032C113.447 225.573 114.658 225.253 116.311 225.072C116.311 224.741 116.263 224.427 116.167 224.128C116.082 223.829 115.922 223.589 115.687 223.408C115.463 223.216 115.138 223.12 114.711 223.12C114.263 223.12 113.842 223.205 113.447 223.376C113.052 223.547 112.7 223.739 112.391 223.952L111.879 223.04C112.242 222.805 112.684 222.581 113.207 222.368C113.74 222.144 114.316 222.032 114.935 222.032C115.884 222.032 116.572 222.325 116.999 222.912C117.426 223.488 117.639 224.261 117.639 225.232V230H116.551L116.439 229.072H116.391C116.028 229.371 115.628 229.632 115.191 229.856C114.764 230.08 114.306 230.192 113.815 230.192ZM114.199 229.136C114.572 229.136 114.924 229.045 115.255 228.864C115.586 228.683 115.938 228.427 116.311 228.096V225.936C115.02 226.096 114.114 226.336 113.591 226.656C113.079 226.976 112.823 227.387 112.823 227.888C112.823 228.325 112.956 228.645 113.223 228.848C113.49 229.04 113.815 229.136 114.199 229.136ZM123.157 230.192C122.475 230.192 121.856 230.032 121.301 229.712C120.747 229.392 120.309 228.928 119.989 228.32C119.669 227.712 119.509 226.981 119.509 226.128C119.509 225.253 119.68 224.512 120.021 223.904C120.373 223.296 120.832 222.832 121.397 222.512C121.973 222.192 122.592 222.032 123.253 222.032C123.765 222.032 124.203 222.123 124.565 222.304C124.939 222.485 125.259 222.699 125.525 222.944L124.853 223.808C124.629 223.605 124.389 223.44 124.133 223.312C123.888 223.184 123.611 223.12 123.301 223.12C122.832 223.12 122.411 223.248 122.037 223.504C121.675 223.749 121.387 224.101 121.173 224.56C120.971 225.008 120.869 225.531 120.869 226.128C120.869 227.013 121.088 227.733 121.525 228.288C121.973 228.832 122.555 229.104 123.269 229.104C123.632 229.104 123.968 229.029 124.277 228.88C124.587 228.72 124.859 228.533 125.093 228.32L125.669 229.2C125.317 229.509 124.928 229.755 124.501 229.936C124.075 230.107 123.627 230.192 123.157 230.192ZM129.674 230.192C128.842 230.192 128.261 229.952 127.93 229.472C127.61 228.992 127.45 228.368 127.45 227.6V223.296H126.298V222.304L127.514 222.224L127.674 220.048H128.778V222.224H130.874V223.296H128.778V227.616C128.778 228.096 128.863 228.469 129.034 228.736C129.215 228.992 129.53 229.12 129.978 229.12C130.117 229.12 130.266 229.099 130.426 229.056C130.586 229.003 130.73 228.955 130.858 228.912L131.114 229.904C130.901 229.979 130.666 230.043 130.41 230.096C130.165 230.16 129.919 230.192 129.674 230.192ZM132.632 230V222.224H133.944V230H132.632ZM133.304 220.624C133.048 220.624 132.835 220.549 132.664 220.4C132.504 220.24 132.424 220.027 132.424 219.76C132.424 219.504 132.504 219.296 132.664 219.136C132.835 218.976 133.048 218.896 133.304 218.896C133.56 218.896 133.768 218.976 133.928 219.136C134.099 219.296 134.184 219.504 134.184 219.76C134.184 220.027 134.099 220.24 133.928 220.4C133.768 220.549 133.56 220.624 133.304 220.624ZM139.642 230.192C138.959 230.192 138.34 230.032 137.786 229.712C137.231 229.392 136.794 228.928 136.474 228.32C136.154 227.712 135.994 226.981 135.994 226.128C135.994 225.253 136.164 224.512 136.506 223.904C136.858 223.296 137.316 222.832 137.882 222.512C138.458 222.192 139.076 222.032 139.738 222.032C140.25 222.032 140.687 222.123 141.05 222.304C141.423 222.485 141.743 222.699 142.01 222.944L141.338 223.808C141.114 223.605 140.874 223.44 140.618 223.312C140.372 223.184 140.095 223.12 139.786 223.12C139.316 223.12 138.895 223.248 138.522 223.504C138.159 223.749 137.871 224.101 137.658 224.56C137.455 225.008 137.354 225.531 137.354 226.128C137.354 227.013 137.572 227.733 138.01 228.288C138.458 228.832 139.039 229.104 139.754 229.104C140.116 229.104 140.452 229.029 140.762 228.88C141.071 228.72 141.343 228.533 141.578 228.32L142.154 229.2C141.802 229.509 141.412 229.755 140.986 229.936C140.559 230.107 140.111 230.192 139.642 230.192ZM146.675 230.192C145.982 230.192 145.352 230.032 144.787 229.712C144.222 229.381 143.774 228.912 143.443 228.304C143.112 227.696 142.947 226.971 142.947 226.128C142.947 225.275 143.112 224.544 143.443 223.936C143.784 223.328 144.222 222.859 144.755 222.528C145.288 222.197 145.848 222.032 146.435 222.032C147.427 222.032 148.19 222.363 148.723 223.024C149.267 223.685 149.539 224.571 149.539 225.68C149.539 225.819 149.534 225.957 149.523 226.096C149.523 226.224 149.512 226.336 149.491 226.432H144.243C144.296 227.253 144.552 227.909 145.011 228.4C145.48 228.891 146.088 229.136 146.835 229.136C147.208 229.136 147.55 229.083 147.859 228.976C148.179 228.859 148.483 228.709 148.771 228.528L149.235 229.392C148.904 229.605 148.526 229.792 148.099 229.952C147.683 230.112 147.208 230.192 146.675 230.192ZM144.227 225.488H148.387C148.387 224.699 148.216 224.101 147.875 223.696C147.544 223.28 147.075 223.072 146.467 223.072C145.923 223.072 145.432 223.285 144.995 223.712C144.568 224.128 144.312 224.72 144.227 225.488ZM153.492 230.192C152.938 230.192 152.41 230.091 151.908 229.888C151.407 229.675 150.97 229.419 150.596 229.12L151.252 228.24C151.594 228.507 151.946 228.731 152.308 228.912C152.671 229.083 153.082 229.168 153.54 229.168C154.052 229.168 154.436 229.051 154.692 228.816C154.948 228.571 155.076 228.283 155.076 227.952C155.076 227.685 154.986 227.461 154.804 227.28C154.634 227.099 154.41 226.949 154.132 226.832C153.866 226.704 153.588 226.587 153.3 226.48C152.938 226.341 152.58 226.187 152.228 226.016C151.876 225.835 151.588 225.605 151.364 225.328C151.14 225.04 151.028 224.677 151.028 224.24C151.028 223.611 151.263 223.088 151.732 222.672C152.212 222.245 152.874 222.032 153.716 222.032C154.196 222.032 154.644 222.117 155.06 222.288C155.476 222.459 155.834 222.667 156.132 222.912L155.492 223.744C155.226 223.541 154.948 223.376 154.66 223.248C154.372 223.12 154.058 223.056 153.716 223.056C153.226 223.056 152.863 223.168 152.628 223.392C152.404 223.616 152.292 223.877 152.292 224.176C152.292 224.421 152.372 224.624 152.532 224.784C152.692 224.933 152.9 225.067 153.156 225.184C153.412 225.291 153.684 225.403 153.972 225.52C154.346 225.659 154.714 225.819 155.076 226C155.439 226.171 155.738 226.405 155.972 226.704C156.218 226.992 156.34 227.381 156.34 227.872C156.34 228.288 156.228 228.672 156.004 229.024C155.791 229.376 155.471 229.659 155.044 229.872C154.628 230.085 154.111 230.192 153.492 230.192Z" fill="#111827"/>
<g clip-path="url(#clip4_16144_41469)">
<path d="M56 288C56 296.837 48.8366 304 40 304C31.1634 304 24 296.837 24 288C24 279.163 31.1634 272 40 272C48.8366 272 56 279.163 56 288ZM26.88 288C26.88 295.246 32.754 301.12 40 301.12C47.246 301.12 53.12 295.246 53.12 288C53.12 280.754 47.246 274.88 40 274.88C32.754 274.88 26.88 280.754 26.88 288Z" fill="#F8FAFC"/>
<path d="M40 273.44C40 272.645 40.6461 271.993 41.4381 272.065C44.475 272.339 47.3814 273.476 49.8065 275.358C52.2316 277.239 54.0563 279.771 55.077 282.644C55.3432 283.394 54.8729 284.181 54.1026 284.379C53.3323 284.577 52.5549 284.109 52.2739 283.365C51.4221 281.109 49.9612 279.122 48.0413 277.633C46.1215 276.144 43.8338 275.223 41.4372 274.959C40.6467 274.872 40 274.235 40 273.44Z" fill="#EF4444"/>
<path d="M34.7357 292V290.872H36.4397V285.856H35.0357V284.992C35.4117 284.92 35.7397 284.836 36.0197 284.74C36.2997 284.636 36.5597 284.512 36.7997 284.368H37.8317V290.872H39.3317V292H34.7357ZM40.888 292V290.872H42.592V285.856H41.188V284.992C41.564 284.92 41.892 284.836 42.172 284.74C42.452 284.636 42.712 284.512 42.952 284.368H43.984V290.872H45.484V292H40.888Z" fill="#111827"/>
</g>
<path d="M67.498 288.128L67.002 289.728H70.154L69.658 288.128C69.466 287.541 69.2847 286.96 69.114 286.384C68.9433 285.797 68.7727 285.2 68.602 284.592H68.538C68.378 285.2 68.2127 285.797 68.042 286.384C67.8713 286.96 67.69 287.541 67.498 288.128ZM64.298 294L67.85 283.504H69.354L72.906 294H71.482L70.49 290.8H66.666L65.658 294H64.298ZM74.2651 297.28V286.224H75.3531L75.4651 287.12H75.5131C75.8651 286.821 76.2491 286.565 76.6651 286.352C77.0918 286.139 77.5345 286.032 77.9931 286.032C78.9958 286.032 79.7585 286.395 80.2811 287.12C80.8038 287.835 81.0651 288.795 81.0651 290C81.0651 290.875 80.9051 291.627 80.5851 292.256C80.2758 292.885 79.8651 293.365 79.3531 293.696C78.8518 294.027 78.3025 294.192 77.7051 294.192C77.3425 294.192 76.9798 294.112 76.6171 293.952C76.2651 293.792 75.9078 293.573 75.5451 293.296L75.5771 294.656V297.28H74.2651ZM77.4811 293.088C78.1211 293.088 78.6491 292.816 79.0651 292.272C79.4918 291.717 79.7051 290.96 79.7051 290C79.7051 289.147 79.5451 288.459 79.2251 287.936C78.9158 287.403 78.3931 287.136 77.6571 287.136C77.3265 287.136 76.9905 287.227 76.6491 287.408C76.3185 287.589 75.9611 287.851 75.5771 288.192V292.272C75.9291 292.571 76.2705 292.784 76.6011 292.912C76.9318 293.029 77.2251 293.088 77.4811 293.088ZM83.1401 297.28V286.224H84.2281L84.3401 287.12H84.3881C84.7401 286.821 85.1241 286.565 85.5401 286.352C85.9668 286.139 86.4095 286.032 86.8681 286.032C87.8708 286.032 88.6335 286.395 89.1561 287.12C89.6788 287.835 89.9401 288.795 89.9401 290C89.9401 290.875 89.7801 291.627 89.4601 292.256C89.1508 292.885 88.7401 293.365 88.2281 293.696C87.7268 294.027 87.1775 294.192 86.5801 294.192C86.2175 294.192 85.8548 294.112 85.4921 293.952C85.1401 293.792 84.7828 293.573 84.4201 293.296L84.4521 294.656V297.28H83.1401ZM86.3561 293.088C86.9961 293.088 87.5241 292.816 87.9401 292.272C88.3668 291.717 88.5801 290.96 88.5801 290C88.5801 289.147 88.4201 288.459 88.1001 287.936C87.7908 287.403 87.2681 287.136 86.5321 287.136C86.2015 287.136 85.8655 287.227 85.5241 287.408C85.1935 287.589 84.8361 287.851 84.4521 288.192V292.272C84.8041 292.571 85.1455 292.784 85.4761 292.912C85.8068 293.029 86.1001 293.088 86.3561 293.088ZM93.4071 294.192C92.9165 294.192 92.5591 294.043 92.3351 293.744C92.1218 293.435 92.0151 292.997 92.0151 292.432V282.608H93.3271V292.528C93.3271 292.731 93.3645 292.88 93.4391 292.976C93.5138 293.061 93.5991 293.104 93.6951 293.104C93.7378 293.104 93.7751 293.104 93.8071 293.104C93.8498 293.093 93.9085 293.083 93.9831 293.072L94.1591 294.064C94.0738 294.107 93.9725 294.139 93.8551 294.16C93.7378 294.181 93.5885 294.192 93.4071 294.192ZM96.0933 294V286.224H97.4053V294H96.0933ZM96.7653 284.624C96.5093 284.624 96.2959 284.549 96.1253 284.4C95.9653 284.24 95.8853 284.027 95.8853 283.76C95.8853 283.504 95.9653 283.296 96.1253 283.136C96.2959 282.976 96.5093 282.896 96.7653 282.896C97.0213 282.896 97.2293 282.976 97.3893 283.136C97.5599 283.296 97.6453 283.504 97.6453 283.76C97.6453 284.027 97.5599 284.24 97.3893 284.4C97.2293 284.549 97.0213 284.624 96.7653 284.624ZM103.103 294.192C102.42 294.192 101.801 294.032 101.247 293.712C100.692 293.392 100.255 292.928 99.9348 292.32C99.6148 291.712 99.4548 290.981 99.4548 290.128C99.4548 289.253 99.6254 288.512 99.9668 287.904C100.319 287.296 100.777 286.832 101.343 286.512C101.919 286.192 102.537 286.032 103.199 286.032C103.711 286.032 104.148 286.123 104.511 286.304C104.884 286.485 105.204 286.699 105.471 286.944L104.799 287.808C104.575 287.605 104.335 287.44 104.079 287.312C103.833 287.184 103.556 287.12 103.247 287.12C102.777 287.12 102.356 287.248 101.983 287.504C101.62 287.749 101.332 288.101 101.119 288.56C100.916 289.008 100.815 289.531 100.815 290.128C100.815 291.013 101.033 291.733 101.471 292.288C101.919 292.832 102.5 293.104 103.215 293.104C103.577 293.104 103.913 293.029 104.223 292.88C104.532 292.72 104.804 292.533 105.039 292.32L105.615 293.2C105.263 293.509 104.873 293.755 104.447 293.936C104.02 294.107 103.572 294.192 103.103 294.192ZM108.963 294.192C108.313 294.192 107.769 294 107.331 293.616C106.905 293.221 106.691 292.677 106.691 291.984C106.691 291.131 107.07 290.48 107.827 290.032C108.595 289.573 109.806 289.253 111.459 289.072C111.459 288.741 111.411 288.427 111.315 288.128C111.23 287.829 111.07 287.589 110.835 287.408C110.611 287.216 110.286 287.12 109.859 287.12C109.411 287.12 108.99 287.205 108.595 287.376C108.201 287.547 107.849 287.739 107.539 287.952L107.027 287.04C107.39 286.805 107.833 286.581 108.355 286.368C108.889 286.144 109.465 286.032 110.083 286.032C111.033 286.032 111.721 286.325 112.147 286.912C112.574 287.488 112.787 288.261 112.787 289.232V294H111.699L111.587 293.072H111.539C111.177 293.371 110.777 293.632 110.339 293.856C109.913 294.08 109.454 294.192 108.963 294.192ZM109.347 293.136C109.721 293.136 110.073 293.045 110.403 292.864C110.734 292.683 111.086 292.427 111.459 292.096V289.936C110.169 290.096 109.262 290.336 108.739 290.656C108.227 290.976 107.971 291.387 107.971 291.888C107.971 292.325 108.105 292.645 108.371 292.848C108.638 293.04 108.963 293.136 109.347 293.136ZM117.463 294.192C116.631 294.192 116.05 293.952 115.719 293.472C115.399 292.992 115.239 292.368 115.239 291.6V287.296H114.087V286.304L115.303 286.224L115.463 284.048H116.567V286.224H118.663V287.296H116.567V291.616C116.567 292.096 116.652 292.469 116.823 292.736C117.004 292.992 117.319 293.12 117.767 293.12C117.906 293.12 118.055 293.099 118.215 293.056C118.375 293.003 118.519 292.955 118.647 292.912L118.903 293.904C118.69 293.979 118.455 294.043 118.199 294.096C117.954 294.16 117.708 294.192 117.463 294.192ZM120.421 294V286.224H121.733V294H120.421ZM121.093 284.624C120.837 284.624 120.624 284.549 120.453 284.4C120.293 284.24 120.213 284.027 120.213 283.76C120.213 283.504 120.293 283.296 120.453 283.136C120.624 282.976 120.837 282.896 121.093 282.896C121.349 282.896 121.557 282.976 121.717 283.136C121.888 283.296 121.973 283.504 121.973 283.76C121.973 284.027 121.888 284.24 121.717 284.4C121.557 284.549 121.349 284.624 121.093 284.624ZM127.383 294.192C126.754 294.192 126.162 294.032 125.607 293.712C125.063 293.392 124.62 292.928 124.279 292.32C123.948 291.712 123.783 290.981 123.783 290.128C123.783 289.253 123.948 288.512 124.279 287.904C124.62 287.296 125.063 286.832 125.607 286.512C126.162 286.192 126.754 286.032 127.383 286.032C128.023 286.032 128.615 286.192 129.159 286.512C129.703 286.832 130.14 287.296 130.471 287.904C130.812 288.512 130.983 289.253 130.983 290.128C130.983 290.981 130.812 291.712 130.471 292.32C130.14 292.928 129.703 293.392 129.159 293.712C128.615 294.032 128.023 294.192 127.383 294.192ZM127.383 293.104C128.055 293.104 128.594 292.832 128.999 292.288C129.415 291.733 129.623 291.013 129.623 290.128C129.623 289.232 129.415 288.507 128.999 287.952C128.594 287.397 128.055 287.12 127.383 287.12C126.722 287.12 126.183 287.397 125.767 287.952C125.351 288.507 125.143 289.232 125.143 290.128C125.143 291.013 125.351 291.733 125.767 292.288C126.183 292.832 126.722 293.104 127.383 293.104ZM133.031 294V286.224H134.119L134.231 287.344H134.279C134.652 286.971 135.047 286.661 135.463 286.416C135.879 286.16 136.353 286.032 136.887 286.032C137.708 286.032 138.305 286.293 138.679 286.816C139.063 287.328 139.255 288.08 139.255 289.072V294H137.943V289.248C137.943 288.523 137.825 287.995 137.591 287.664C137.356 287.333 136.983 287.168 136.471 287.168C136.076 287.168 135.719 287.269 135.399 287.472C135.089 287.675 134.737 287.973 134.343 288.368V294H133.031ZM145.112 294V283.504H148.392C149.107 283.504 149.741 283.6 150.296 283.792C150.851 283.973 151.283 284.283 151.592 284.72C151.912 285.147 152.072 285.723 152.072 286.448C152.072 287.259 151.859 287.915 151.432 288.416C151.005 288.907 150.429 289.243 149.704 289.424L152.376 294H150.872L148.344 289.568H146.44V294H145.112ZM146.44 288.48H148.2C149.021 288.48 149.651 288.315 150.088 287.984C150.525 287.643 150.744 287.131 150.744 286.448C150.744 285.755 150.525 285.269 150.088 284.992C149.651 284.715 149.021 284.576 148.2 284.576H146.44V288.48ZM157.089 294.192C156.396 294.192 155.766 294.032 155.201 293.712C154.636 293.381 154.188 292.912 153.857 292.304C153.526 291.696 153.361 290.971 153.361 290.128C153.361 289.275 153.526 288.544 153.857 287.936C154.198 287.328 154.636 286.859 155.169 286.528C155.702 286.197 156.262 286.032 156.849 286.032C157.841 286.032 158.604 286.363 159.137 287.024C159.681 287.685 159.953 288.571 159.953 289.68C159.953 289.819 159.948 289.957 159.937 290.096C159.937 290.224 159.926 290.336 159.905 290.432H154.657C154.71 291.253 154.966 291.909 155.425 292.4C155.894 292.891 156.502 293.136 157.249 293.136C157.622 293.136 157.964 293.083 158.273 292.976C158.593 292.859 158.897 292.709 159.185 292.528L159.649 293.392C159.318 293.605 158.94 293.792 158.513 293.952C158.097 294.112 157.622 294.192 157.089 294.192ZM154.641 289.488H158.801C158.801 288.699 158.63 288.101 158.289 287.696C157.958 287.28 157.489 287.072 156.881 287.072C156.337 287.072 155.846 287.285 155.409 287.712C154.982 288.128 154.726 288.72 154.641 289.488ZM163.448 294.192C162.797 294.192 162.253 294 161.816 293.616C161.389 293.221 161.176 292.677 161.176 291.984C161.176 291.131 161.554 290.48 162.312 290.032C163.08 289.573 164.29 289.253 165.944 289.072C165.944 288.741 165.896 288.427 165.8 288.128C165.714 287.829 165.554 287.589 165.32 287.408C165.096 287.216 164.77 287.12 164.344 287.12C163.896 287.12 163.474 287.205 163.08 287.376C162.685 287.547 162.333 287.739 162.024 287.952L161.512 287.04C161.874 286.805 162.317 286.581 162.84 286.368C163.373 286.144 163.949 286.032 164.568 286.032C165.517 286.032 166.205 286.325 166.632 286.912C167.058 287.488 167.272 288.261 167.272 289.232V294H166.184L166.072 293.072H166.024C165.661 293.371 165.261 293.632 164.824 293.856C164.397 294.08 163.938 294.192 163.448 294.192ZM163.832 293.136C164.205 293.136 164.557 293.045 164.888 292.864C165.218 292.683 165.57 292.427 165.944 292.096V289.936C164.653 290.096 163.746 290.336 163.224 290.656C162.712 290.976 162.456 291.387 162.456 291.888C162.456 292.325 162.589 292.645 162.856 292.848C163.122 293.04 163.448 293.136 163.832 293.136ZM172.374 294.192C171.404 294.192 170.625 293.84 170.038 293.136C169.452 292.421 169.158 291.419 169.158 290.128C169.158 289.285 169.313 288.56 169.622 287.952C169.942 287.333 170.358 286.859 170.87 286.528C171.393 286.197 171.948 286.032 172.534 286.032C172.982 286.032 173.372 286.112 173.702 286.272C174.033 286.432 174.369 286.651 174.71 286.928L174.646 285.6V282.608H175.974V294H174.886L174.774 293.088H174.726C174.428 293.387 174.076 293.648 173.67 293.872C173.265 294.085 172.833 294.192 172.374 294.192ZM172.662 293.088C173.345 293.088 174.006 292.731 174.646 292.016V287.952C174.316 287.653 173.996 287.445 173.686 287.328C173.388 287.2 173.078 287.136 172.758 287.136C172.342 287.136 171.964 287.264 171.622 287.52C171.292 287.765 171.025 288.112 170.822 288.56C170.62 288.997 170.518 289.515 170.518 290.112C170.518 291.04 170.705 291.771 171.078 292.304C171.452 292.827 171.98 293.088 172.662 293.088ZM178.721 297.344C178.551 297.344 178.385 297.328 178.225 297.296C178.076 297.264 177.937 297.227 177.809 297.184L178.065 296.144C178.151 296.165 178.247 296.187 178.353 296.208C178.46 296.24 178.561 296.256 178.657 296.256C179.095 296.256 179.457 296.096 179.745 295.776C180.033 295.467 180.257 295.072 180.417 294.592L180.593 294.016L177.473 286.224H178.833L180.417 290.528C180.535 290.859 180.657 291.216 180.785 291.6C180.924 291.984 181.052 292.357 181.169 292.72H181.233C181.351 292.368 181.463 292 181.569 291.616C181.676 291.232 181.783 290.869 181.889 290.528L183.281 286.224H184.561L181.633 294.64C181.452 295.152 181.233 295.611 180.977 296.016C180.732 296.421 180.423 296.741 180.049 296.976C179.687 297.221 179.244 297.344 178.721 297.344Z" fill="#111827"/>
<defs>
<clipPath id="clip0_16144_41469">
<path d="M24 32C24 23.1634 31.1634 16 40 16C48.8366 16 56 23.1634 56 32C56 40.8366 48.8366 48 40 48C31.1634 48 24 40.8366 24 32Z" fill="white"/>
</clipPath>
<clipPath id="clip1_16144_41469">
<path d="M24 96C24 87.1634 31.1634 80 40 80C48.8366 80 56 87.1634 56 96C56 104.837 48.8366 112 40 112C31.1634 112 24 104.837 24 96Z" fill="white"/>
</clipPath>
<clipPath id="clip2_16144_41469">
<path d="M24 160C24 151.163 31.1634 144 40 144C48.8366 144 56 151.163 56 160C56 168.837 48.8366 176 40 176C31.1634 176 24 168.837 24 160Z" fill="white"/>
</clipPath>
<clipPath id="clip3_16144_41469">
<path d="M24 224C24 215.163 31.1634 208 40 208C48.8366 208 56 215.163 56 224C56 232.837 48.8366 240 40 240C31.1634 240 24 232.837 24 224Z" fill="white"/>
</clipPath>
<clipPath id="clip4_16144_41469">
<path d="M24 288C24 279.163 31.1634 272 40 272C48.8366 272 56 279.163 56 288C56 296.837 48.8366 304 40 304C31.1634 304 24 296.837 24 288Z" fill="white"/>
</clipPath>
</defs>
</svg>
